HIERARCHY
ROOT Hips
{
	OFFSET 0.00000 0.00000 0.00000
	CHANNELS 6 Xposition Yposition Zposition Zrotation Yrotation Xrotation 
	JOINT LHipJoint
	{
		OFFSET 0 0 0
		CHANNELS 3 Zrotation Yrotation Xrotation
		JOINT LeftHip
		{
			OFFSET 1.59801 -1.77853 0.57028
			CHANNELS 3 Zrotation Yrotation Xrotation
			JOINT LeftKnee
			{
				OFFSET 2.39439 -6.57854 0.00000
				CHANNELS 3 Zrotation Yrotation Xrotation
				JOINT LeftAnkle
				{
					OFFSET 2.69334 -7.39989 0.00000
					CHANNELS 3 Zrotation Yrotation Xrotation
					JOINT LeftToe
					{
						OFFSET 0.09553 -0.26245 1.73747
						CHANNELS 3 Zrotation Yrotation Xrotation
						End Site
						{
							OFFSET 0.00000 -0.00000 0.89391
						}
					}
				}
			}
		}
	}
	JOINT RHipJoint
	{
		OFFSET 0 0 0
		CHANNELS 3 Zrotation Yrotation Xrotation
		JOINT RightHip
		{
			OFFSET -1.54704 -1.77852 0.57028
			CHANNELS 3 Zrotation Yrotation Xrotation
			JOINT RightKnee
			{
				OFFSET -2.40286 -6.60180 0.00000
				CHANNELS 3 Zrotation Yrotation Xrotation
				JOINT RightAnkle
				{
					OFFSET -2.63873 -7.24984 0.00000
					CHANNELS 3 Zrotation Yrotation Xrotation
					JOINT RightToe
					{
						OFFSET -0.15631 -0.42945 1.84436
						CHANNELS 3 Zrotation Yrotation Xrotation
						End Site
						{
							OFFSET -0.00000 -0.00000 0.95734
						}
					}
				}
			}
		}
	}
	JOINT lowerback
	{
		OFFSET 0 0 0
		CHANNELS 3 Zrotation Yrotation Xrotation
		JOINT Chest
		{
			OFFSET -0.00436 1.89866 -0.04018
			CHANNELS 3 Zrotation Yrotation Xrotation
			JOINT Chest2
			{
				OFFSET 0.02031 1.88273 0.09634
				CHANNELS 3 Zrotation Yrotation Xrotation
				JOINT lowerneck
				{
					OFFSET 0 0 0
					CHANNELS 3 Zrotation Yrotation Xrotation
					JOINT Neck
					{
						OFFSET -0.13105 1.89371 0.23083
						CHANNELS 3 Zrotation Yrotation Xrotation
						JOINT Head
						{
							OFFSET 0.17062 1.83990 -0.54062
							CHANNELS 3 Zrotation Yrotation Xrotation
							End Site
							{
								OFFSET 0.04576 1.94782 -0.21839
							}
						}
					}
				}
				JOINT LeftCollar
				{
					OFFSET 0 0 0
					CHANNELS 3 Zrotation Yrotation Xrotation
					JOINT LeftShoulder
					{
						OFFSET 3.12424 1.09204 0.22226
CHANNELS 3 Zrotation Xrotation Yrotation
						JOINT LeftElbow
						{
OFFSET 0 -5.292770 0.000000
CHANNELS 3 Zrotation Xrotation Yrotation
							JOINT LeftWrist
							{
OFFSET 0 -2.852260 0.000000
CHANNELS 3 Zrotation Xrotation Yrotation
								JOINT lhand
								{
									OFFSET 0 0 0
CHANNELS 3 Zrotation Xrotation Yrotation
									JOINT LFingers
									{
OFFSET 0 -0.602100 0.000000
CHANNELS 3 Zrotation Xrotation Yrotation
										End Site
										{
OFFSET 0 -0.485430 0.000000
										}
									}
								}
								JOINT LThumb
								{
OFFSET 0 0.000000 0.000000
CHANNELS 3 Zrotation Xrotation Yrotation
									End Site
									{
OFFSET 0 -0.492840 0.492840
									}
								}
							}
						}
					}
				}
				JOINT RightCollar
				{
					OFFSET 0 0 0
					CHANNELS 3 Zrotation Yrotation Xrotation
					JOINT RightShoulder
					{
						OFFSET -2.91709 1.01504 0.30199
CHANNELS 3 Zrotation Xrotation Yrotation
						JOINT RightElbow
						{
OFFSET 0 -5.133040 0.000000
CHANNELS 3 Zrotation Xrotation Yrotation
							JOINT RightWrist
							{
OFFSET 0 -2.743050 0.000000
CHANNELS 3 Zrotation Xrotation Yrotation
								JOINT rhand
								{
									OFFSET 0 0 0
CHANNELS 3 Zrotation Xrotation Yrotation
									JOINT RFingers
									{
OFFSET 0 -0.767980 0.000000
CHANNELS 3 Zrotation Xrotation Yrotation
										End Site
										{
OFFSET 0 -0.619160 0.000000
										}
									}
								}
								JOINT RThumb
								{
OFFSET 0 0.000000 0.000000
CHANNELS 3 Zrotation Xrotation Yrotation
									End Site
									{
OFFSET 0 -0.628620 0.628620
									}
								}
							}
						}
					}
				}
			}
		}
	}
}
MOTION
Frames: 4
Frame Time: 0.008333333333333333
0.321800 16.380500 0.271300 -2.179700 -22.795100 0.672200 0.000000 0.000000 0.000000 -17.411300 5.105000 -13.355100 5.510000 13.936100 42.981900 3.006000 -1.467700 -32.477500 0.639700 -5.117000 -14.242700 0.000000 0.000000 0.000000 20.117800 20.846800 -10.949200 -5.261900 -13.672800 41.942200 -2.248600 7.675500 -26.991300 -1.273600 7.152500 -20.168000 -1.442800 -1.218300 -2.491600 1.391800 -1.621600 -6.035300 2.275400 -0.722500 -4.757400 -15.879200 -7.860000 -11.523800 16.737100 -12.138600 22.338700 7.122200 -5.358000 11.166300 0.000000 0.000000 0.000000 -6.637700 -21.052300 -57.730200 135.127300 -50.706000 97.859800 -46.554900 -15.072400 -34.585800 0.000000 0.000000 0.000000 -7.125000 0.000000 0.000000 -74.206100 50.660800 19.578000 0.000000 0.000000 0.000000 -0.096400 -2.385500 29.718300 -150.362000 -40.581100 -108.826600 39.517100 39.739700 -6.255300 0.000000 0.000000 0.000000 7.125000 0.000000 -0.000000 40.943500 18.085800 37.706400
0.318851 16.376249 0.257964 -2.046550 -22.205867 0.602270 0.000000 0.000000 0.000000 -17.421531 4.946111 -13.494672 5.538872 13.966083 43.101760 2.967415 -1.939392 -32.142064 0.604521 -4.975938 -13.840199 0.000000 0.000000 0.000000 20.085445 20.877265 -10.902234 -5.295860 -13.709455 42.085798 -2.277789 7.001373 -27.218056 -1.229072 7.031062 -19.807480 -1.543125 -1.175150 -2.349578 1.333801 -1.566802 -6.013949 2.273968 -0.690732 -4.817376 -16.030861 -7.967015 -11.264971 16.810531 -12.319939 22.335168 7.153571 -5.459434 11.166380 0.000000 0.000000 0.000000 -6.890447 -20.645198 -58.014210 134.928191 -50.803600 97.705586 -46.277107 -14.674012 -34.470399 0.000000 0.000000 0.000000 -7.125000 0.000000 0.000000 -73.906008 50.647519 19.338295 0.000000 0.000000 0.000000 0.040426 -1.940123 29.380379 -150.119901 -40.790409 -108.668804 39.102260 40.628649 -6.919227 0.000000 0.000000 0.000000 7.125000 0.000000 0.000000 40.641826 17.667265 37.721694
0.320690 16.370654 0.248450 -2.036010 -21.811752 0.593696 0.000000 0.000000 0.000000 -17.357852 4.851703 -13.657779 5.575349 14.003828 43.252799 2.972228 -2.175157 -32.111166 0.624395 -5.056549 -14.069974 0.000000 0.000000 0.000000 20.123362 20.917894 -10.921507 -5.331803 -13.747949 42.236960 -2.288770 6.614899 -27.318948 -1.260169 7.116038 -20.059655 -1.505255 -1.164434 -2.292944 1.365049 -1.550125 -5.938057 2.284685 -0.684003 -4.770408 -16.256894 -8.000874 -11.240092 16.949911 -12.369364 22.393904 7.244744 -5.488742 11.221269 0.000000 0.000000 0.000000 -6.923739 -20.448447 -58.075611 134.808011 -50.862205 97.612419 -46.307647 -14.473530 -34.401448 0.000000 0.000000 0.000000 -7.125000 0.000000 0.000000 -73.831058 50.606271 19.179850 0.000000 0.000000 0.000000 0.028841 -1.614580 29.477542 -150.076845 -40.827418 -108.640653 38.828043 40.695053 -6.713799 0.000000 0.000000 0.000000 7.125000 0.000000 0.000000 40.630500 17.987607 37.239305
0.322855 16.363225 0.238758 -2.009938 -21.506623 0.569139 0.000000 0.000000 0.000000 -17.309252 4.790760 -13.831962 5.623451 14.053286 43.451262 2.972667 -2.555415 -32.024296 0.605205 -4.979769 -13.850900 0.000000 0.000000 0.000000 20.141576 20.999662 -10.979812 -5.380413 -13.799766 42.441211 -2.303975 6.298230 -27.443875 -1.237337 7.053691 -19.874567 -1.488905 -1.151229 -2.333085 1.349108 -1.530984 -5.804824 2.255164 -0.677920 -4.609040 -16.280748 -8.009421 -11.153279 17.058590 -12.399533 22.281458 7.284205 -5.498395 11.178472 0.000000 0.000000 0.000000 -6.794367 -20.390402 -58.274418 134.731148 -50.899522 97.552819 -46.586626 -14.637205 -34.346720 0.000000 0.000000 0.000000 -7.125000 0.000000 0.000000 -73.906924 50.530908 19.034493 0.000000 0.000000 0.000000 0.034466 -1.623146 29.355119 -149.976656 -40.913350 -108.575116 38.884036 40.784116 -6.588739 0.000000 0.000000 0.000000 7.125000 0.000000 0.000000 40.682495 18.077946 37.209051
